<?xml version="1.0" encoding="UTF-8"?>
<svg version="1.1" viewBox="0 0 640 640" xmlns="http://www.w3.org/2000/svg">
 <g transform="translate(0,64)" fill="#fff" stroke-width="0">
  <path d="m38.8 5.1c-10.4-8.2-25.5-6.3-33.7 4.1s-6.3 25.5 4.1 33.7l592 464c10.4 8.2 25.5 6.3 33.7-4.1s6.3-25.5-4.1-33.7l-149.4-117.1c9.8-0.4 18.9-5.3 24.6-13.3 6-8.3 7.7-19.1 4.4-28.8l-1-3c-13.8-41.5-42.8-74.8-79.5-94.7l-11.4-148.2h29.5c17.7 0 32-14.3 32-32s-14.3-32-32-32h-256c-17.7 0-32 14.3-32 32s14.3 32 32 32h29.5l-6.1 79.5zm286.1 346.9-147.8-116.4c-20.9 18.9-37.2 43.3-46.5 71.3l-1 3c-3.3 9.8-1.6 20.5 4.4 28.8s15.7 13.3 26 13.3zm-36.9 32v96c0 17.7 14.3 32 32 32s32-14.3 32-32v-96z"/>
 </g>
</svg>
