<?xml version="1.0" encoding="UTF-8"?>
<svg version="1.1" viewBox="0 0 512 512" xmlns="http://www.w3.org/2000/svg">
 <g transform="translate(64.011)" fill="#fff" stroke-width="0">
  <path d="m32 32c0-17.7 14.3-32 32-32h256c17.7 0 32 14.3 32 32s-14.3 32-32 32h-29.5l11.4 148.2c36.7 19.9 65.7 53.2 79.5 94.7l1 3c3.3 9.8 1.6 20.5-4.4 28.8s-15.7 13.3-26 13.3h-320c-10.3 0-19.9-4.9-26-13.3s-7.7-19.1-4.4-28.8l1-3c13.8-41.5 42.8-74.8 79.5-94.7l11.4-148.2h-29.5c-17.7 0-32-14.3-32-32zm128 352h64v96c0 17.7-14.3 32-32 32s-32-14.3-32-32z"/>
 </g>
</svg>
